<?xml version="1.0" encoding="UTF-8" standalone="no" ?>
<!DOCTYPE svg PUBLIC "-//W3C//DTD SVG 1.1//EN" "http://www.w3.org/Graphics/SVG/1.1/DTD/svg11.dtd">
<svg xmlns="http://www.w3.org/2000/svg" xmlns:xlink="http://www.w3.org/1999/xlink" version="1.1" width="1000" height="320" viewBox="0 0 1000 320" xml:space="preserve">
<desc>Created with Fabric.js 5.2.4</desc>
<defs>
</defs>
<g transform="matrix(1 0 0 1 500 160)" id="bc084c4d-dad5-4f4a-bca4-24bdda126a2a"  >
<rect style="stroke: none; stroke-width: 1; stroke-dasharray: none; stroke-linecap: butt; stroke-dashoffset: 0; stroke-linejoin: miter; stroke-miterlimit: 4; fill: rgb(255,255,255); fill-rule: nonzero; opacity: 1; visibility: hidden;" vector-effect="non-scaling-stroke"  x="-500" y="-160" rx="0" ry="0" width="1000" height="320" />
</g>
<g transform="matrix(Infinity NaN NaN Infinity 0 0)" id="b33b28b9-8ea6-48dc-96ce-f8f5f56f71f7"  >
</g>
<g transform="matrix(1.37 0 0 1.37 500 160)"  >
<g style="" vector-effect="non-scaling-stroke"   >
		<g transform="matrix(1 0 0 1 0 0)"  >
<path style="stroke: none; stroke-width: 1; stroke-dasharray: none; stroke-linecap: butt; stroke-dashoffset: 0; stroke-linejoin: miter; stroke-miterlimit: 4; fill: rgb(0,0,0); fill-rule: nonzero; opacity: 1;" vector-effect="non-scaling-stroke"  transform=" translate(-512.99, -539.35)" d="M 813 646.049683 C 595.686707 646.039673 378.873352 646.029602 162.060043 646.018372 C 155.856842 646.018066 155.677734 645.867981 155.676453 639.516296 C 155.662964 572.689026 155.715714 505.861603 155.551056 439.034698 C 155.538589 433.975037 156.955765 432.568451 162.007782 432.570831 C 395.986633 432.681274 629.965576 432.675385 863.944397 432.551941 C 869.029724 432.549255 870.416626 434.028412 870.405945 439.052399 C 870.263306 506.045959 870.2724 573.0401 870.436401 640.03363 C 870.448853 645.098572 868.53833 646.203491 863.994202 646.151794 C 847.164551 645.960327 830.331665 646.059387 813 646.049683 M 246.55394 495.905182 C 232.799759 499.402832 223.207413 507.684204 218.394119 521.063049 C 213.351837 535.078369 213.441742 549.144775 219.360764 562.919556 C 230.12973 587.98114 263.86908 594.175659 282.609802 574.632202 C 283.457367 573.748352 284.029602 572.236023 285.979187 572.851501 C 286.099762 573.910461 286.349731 575.039673 286.337067 576.165955 C 286.251251 583.779053 285.162598 583.889893 294.337738 583.848389 C 294.670685 583.846924 295.003601 583.848083 295.336548 583.845825 C 301.857697 583.801636 301.883881 583.801575 301.885315 577.100647 C 301.890289 553.794861 301.881226 530.489075 301.86557 507.183258 C 301.858307 496.363007 301.572968 496.192749 290.510101 497.113586 C 287.629089 497.353363 286.298981 498.396484 286.312897 501.371002 C 286.324768 503.905731 286.834259 506.557098 285.412933 509.881165 C 275.412201 496.762573 262.380768 493.375183 246.55394 495.905182 M 729.026367 512.536255 C 722.416565 521.960327 720.621094 532.609314 720.978943 543.836975 C 721.841797 570.904358 743.055115 590.130127 773.782654 585.078003 C 797.577148 581.165771 810.062317 564.478027 809.783569 539.241089 C 809.560852 519.072632 799.04834 503.493622 781.636902 497.529022 C 762.064758 490.82428 741.81488 496.416107 729.026367 512.536255 M 694.873962 571.358948 C 703.138672 561.464233 705.695801 549.871582 704.997009 537.3125 C 703.529663 510.941559 686.240723 494.746094 659.844177 495.158844 C 641.678467 495.442902 627.653992 503.249786 620.805115 520.255127 C 613.556885 538.251953 613.890076 556.441895 627.461792 571.804504 C 644.410095 590.989319 676.482727 590.6922 694.873962 571.358948 M 572.010071 567.721741 C 560.060852 573.729492 546.183044 572.934631 537.959351 564.561584 C 524.781738 551.144714 526.657959 535.824524 533.890869 520.277588 C 528.95459 520.277588 524.024048 520.294434 519.093628 520.269958 C 516.870483 520.258911 515.872742 521.528625 515.262207 523.488281 C 513.966248 527.64801 513.422302 531.914429 512.926636 536.228882 C 509.676544 564.518005 529.085693 586.191956 557.630432 585.76709 C 575.835144 585.496155 590.393921 578.139893 597.412231 560.832458 C 604.992371 542.139587 603.692383 523.660461 589.51355 508.104218 C 578.165771 495.654114 563.158569 493.216675 547.233643 496.09021 C 536.034851 498.110962 527.032471 503.908234 520.193054 514.562012 C 530.10968 513.170837 539.268555 515.26239 548.04718 511.034637 C 553.207581 508.549377 559.183533 509.012939 564.747742 510.4776 C 576.533936 513.580078 583.076294 521.878418 585.071411 533.389221 C 587.401306 546.831604 584.868896 558.981201 572.010071 567.721741 M 366.544891 509.534546 C 371.177612 510.37619 375.341797 512.289612 377.37381 516.678589 C 379.167694 520.553223 381.757202 521.167236 385.425323 520.322266 C 387.035583 519.951355 388.722382 519.807129 390.379425 519.767212 C 393.471466 519.692688 394.002441 518.134155 393.221191 515.486023 C 391.027435 508.049774 386.69342 502.33786 379.511292 499.250488 C 366.190125 493.5242 352.592682 493.259888 339.254181 498.861664 C 329.979004 502.756927 325.096436 510.147858 325.313965 520.470459 C 325.523865 530.431885 330.664246 536.934875 339.648743 540.706909 C 345.044067 542.971985 350.716766 544.285461 356.365417 545.707397 C 362.485046 547.247742 368.784576 548.234863 374.501923 551.097778 C 378.199677 552.949463 380.404358 555.7948 380.339874 560.186584 C 380.276581 564.495483 378.16394 567.324768 374.55191 569.382629 C 371.869202 570.911011 368.918701 571.641296 365.978851 571.848877 C 354.01767 572.693298 342.351959 572.6922 336.297668 559.271362 C 335.052155 556.510254 323.359039 557.128601 321.820709 559.822205 C 321.267029 560.791626 321.642975 561.734253 321.902435 562.706177 C 323.731689 569.558594 327.076935 575.598022 333.363831 579.042175 C 350.511658 588.436218 368.117157 588.746643 385.308563 579.451538 C 393.173798 575.199036 396.816498 567.474243 396.556671 558.497009 C 396.287354 549.193115 391.673309 542.502869 383.105316 538.566833 C 377.775909 536.118591 372.178864 534.619507 366.518158 533.226257 C 360.070831 531.639343 353.413239 530.750488 347.317169 527.939819 C 343.408508 526.137634 340.755951 523.216553 341.093872 518.623779 C 341.427429 514.089844 344.336273 511.484344 348.449219 510.116333 C 354.118195 508.230774 359.895813 508.269043 366.544891 509.534546 M 441.682556 583.852112 C 469.55835 591.77771 493.70697 576.038147 496.693085 558.014709 C 493.91217 557.168945 491.050507 556.394104 488.256836 555.423462 C 485.159454 554.347351 483.041046 554.791992 481.403687 558.056885 C 479.604187 561.645142 476.769012 564.505798 473.281372 566.681091 C 455.803955 577.582153 429.727722 570.280945 427.366547 544.352905 C 426.052032 529.918579 432.298462 517.044861 444.403595 511.769257 C 454.480682 507.377502 472.802307 508.638428 480.668762 521.235229 C 481.564545 522.669678 482.652863 524.139526 484.626099 523.683289 C 488.580933 522.76886 492.780548 522.540527 496.460663 520.070984 C 495.385071 516.061279 493.389648 512.880981 491.023834 509.836121 C 478.119141 493.227295 452.976898 491.88681 437.055756 498.660095 C 419.894745 505.960846 410.637482 522.604431 411.375092 543.811829 C 412.024689 562.489258 422.82312 577.056152 441.682556 583.852112 z" stroke-linecap="round" />
</g>
		<g transform="matrix(1 0 0 1 -254.51 1.32)"  >
<path style="stroke: none; stroke-width: 1; stroke-dasharray: none; stroke-linecap: butt; stroke-dashoffset: 0; stroke-linejoin: miter; stroke-miterlimit: 4; fill: rgb(0,0,0); fill-rule: nonzero; opacity: 1;" vector-effect="non-scaling-stroke"  transform=" translate(-258.48, -540.68)" d="M 231.693756 531.096802 C 234.708603 519.84729 241.090652 512.112915 252.440353 510.063263 C 263.213745 508.117676 272.845459 510.593994 280.301819 519.493408 C 288.511414 529.291809 289.705383 555.063477 275.973785 566.073303 C 260.840118 578.207397 237.101166 570.541138 231.988342 551.269531 C 230.258835 544.750671 230.014862 538.131531 231.693756 531.096802 z" stroke-linecap="round" />
</g>
		<g transform="matrix(1 0 0 1 252.36 1.06)"  >
<path style="stroke: none; stroke-width: 1; stroke-dasharray: none; stroke-linecap: butt; stroke-dashoffset: 0; stroke-linejoin: miter; stroke-miterlimit: 4; fill: rgb(0,0,0); fill-rule: nonzero; opacity: 1;" vector-effect="non-scaling-stroke"  transform=" translate(-765.35, -540.41)" d="M 771.408325 571.090576 C 767.978577 571.230835 764.974487 571.480286 761.993591 571.313721 C 753.482849 570.837952 746.673157 567.096436 741.891296 560.01416 C 734.389282 548.903198 734.775818 530.058899 742.774719 519.935425 C 750.034729 510.747101 759.970276 508.186127 770.976562 509.985352 C 781.554565 511.71463 788.752991 518.150635 791.978088 528.395569 C 796.162476 541.687927 794.820496 554.040771 784.532288 564.441162 C 781.012695 567.999146 776.599976 569.836487 771.408325 571.090576 z" stroke-linecap="round" />
</g>
		<g transform="matrix(1 0 0 1 148 1.08)"  >
<path style="stroke: none; stroke-width: 1; stroke-dasharray: none; stroke-linecap: butt; stroke-dashoffset: 0; stroke-linejoin: miter; stroke-miterlimit: 4; fill: rgb(0,0,0); fill-rule: nonzero; opacity: 1;" vector-effect="non-scaling-stroke"  transform=" translate(-661, -540.43)" d="M 649.755859 569.618408 C 627.876221 561.510925 627.466736 525.754944 644.204834 514.519714 C 653.388245 508.355408 663.325684 507.837616 673.262878 512.03949 C 683.262451 516.2677 687.865784 524.820251 689.193787 535.163879 C 689.740601 539.423157 689.779053 543.827942 688.877869 548.105652 C 684.9245 566.871399 668.949829 575.783691 649.755859 569.618408 z" stroke-linecap="round" />
</g>
</g>
</g>
</svg>