<?xml version="1.0" encoding="UTF-8" standalone="no" ?>
<!DOCTYPE svg PUBLIC "-//W3C//DTD SVG 1.1//EN" "http://www.w3.org/Graphics/SVG/1.1/DTD/svg11.dtd">
<svg xmlns="http://www.w3.org/2000/svg" xmlns:xlink="http://www.w3.org/1999/xlink" version="1.1" width="1340" height="320" viewBox="32.5 -95 1340 320" xml:space="preserve">
<desc>Created with Fabric.js 5.2.4</desc>
<defs>
</defs>
<rect x="0" y="0" width="100%" height="100%" fill="transparent"></rect>
<g transform="matrix(0 0 0 0 0 0)" id="a3861176-8819-4bc1-875d-622e6397a9c2"  >
</g>
<g transform="matrix(1 0 0 1 670 160)" id="c60c8e5e-c323-4cee-8888-5e918782700b"  >
<rect style="stroke: none; stroke-width: 1; stroke-dasharray: none; stroke-linecap: butt; stroke-dashoffset: 0; stroke-linejoin: miter; stroke-miterlimit: 4; fill: rgb(255,255,255); fill-rule: nonzero; opacity: 1; visibility: hidden;" vector-effect="non-scaling-stroke"  x="-670" y="-160" rx="0" ry="0" width="1340" height="320" />
</g>
<g transform="matrix(1.04 0 0 1.04 702.63 62.95)"  >
<g style="" vector-effect="non-scaling-stroke"   >
		<g transform="matrix(1 0 0 1 -539.57 40.84)"  >
<path style="stroke: none; stroke-width: 1; stroke-dasharray: none; stroke-linecap: butt; stroke-dashoffset: 0; stroke-linejoin: miter; stroke-miterlimit: 4; fill: rgb(35,32,32); fill-rule: nonzero; opacity: 1;" vector-effect="non-scaling-stroke"  transform=" translate(-481.18, -1055.47)" d="M 567.972046 1149.547607 C 557.659485 1149.547119 547.841187 1149.547119 537.434753 1149.547119 C 537.434753 1141.896973 537.434753 1134.20813 537.434753 1126.396362 C 536.564697 1126.5979 536.16626 1126.565186 536.018555 1126.742065 C 502.982239 1166.291138 434.722168 1163.548584 401.596313 1117.997314 C 375.422485 1082.005981 373.84201 1012.856323 417.272003 977.028503 C 445.790985 953.501648 490.026031 949.540466 520.060425 968.594543 C 526.118774 972.437988 531.242126 977.755188 536.848511 982.436218 C 536.848511 975.662109 536.848511 968.446899 536.848511 960.872192 C 551.167297 960.872192 565.064636 960.872192 579.303833 960.872192 C 579.303833 1023.607605 579.303833 1086.317261 579.303833 1149.548096 C 575.677551 1149.548096 572.07196 1149.548096 567.972046 1149.547607 M 472.26593 1114.603516 C 490.516693 1116.982422 507.2323 1113.926758 520.511536 1100.10498 C 536.595581 1083.36377 539.732239 1062.797119 535.787048 1041.080444 C 532.082458 1020.688293 520.630615 1005.629272 500.304993 999.065308 C 479.217438 992.255249 459.725067 995.497742 443.258331 1010.998718 C 428.645233 1024.754883 424.860809 1042.518677 426.108063 1061.723633 C 427.857117 1088.655029 445.940094 1109.53772 472.26593 1114.603516 z" stroke-linecap="round" />
</g>
		<g transform="matrix(1 0 0 1 537.03 40.56)"  >
<path style="stroke: none; stroke-width: 1; stroke-dasharray: none; stroke-linecap: butt; stroke-dashoffset: 0; stroke-linejoin: miter; stroke-miterlimit: 4; fill: rgb(35,32,31); fill-rule: nonzero; opacity: 1;" vector-effect="non-scaling-stroke"  transform=" translate(-1557.79, -1055.18)" d="M 1480.72522 989.711182 C 1520.679443 944.992737 1595.708618 944.95752 1634.383911 990.381775 C 1659.869019 1020.314331 1664.563721 1055.294678 1651.078857 1091.691284 C 1637.834595 1127.438965 1610.559204 1147.55835 1573.107788 1152.837891 C 1540.733765 1157.401855 1511.124146 1149.929321 1486.342285 1127.709351 C 1473.125854 1115.859375 1464.62793 1100.838501 1460.648193 1083.503906 C 1455.26709 1060.065063 1455.455566 1036.75415 1465.383423 1014.506836 C 1469.262329 1005.814514 1475.389526 998.12561 1480.72522 989.711182 M 1502.000854 1073.337769 C 1512.099854 1105.799438 1544.143066 1122.372559 1576.494873 1111.867065 C 1598.415161 1104.749023 1612.780029 1084.498779 1614.505127 1058.283813 C 1616.743286 1024.269531 1591.736938 996.499023 1558.537964 996.130249 C 1518.356445 995.683899 1490.774658 1032.849487 1502.000854 1073.337769 z" stroke-linecap="round" />
</g>
		<g transform="matrix(1 0 0 1 310.21 40.36)"  >
<path style="stroke: none; stroke-width: 1; stroke-dasharray: none; stroke-linecap: butt; stroke-dashoffset: 0; stroke-linejoin: miter; stroke-miterlimit: 4; fill: rgb(35,32,31); fill-rule: nonzero; opacity: 1;" vector-effect="non-scaling-stroke"  transform=" translate(-1330.97, -1054.99)" d="M 1268.228027 1134.759644 C 1240.449341 1113.644775 1229.250244 1085.027222 1230.572021 1051.525146 C 1232.183594 1010.672668 1252.104858 981.507263 1289.618408 964.549561 C 1348.355835 937.99762 1419.346436 974.317688 1429.862305 1036.409546 C 1440.966431 1101.973267 1393.384766 1156.411133 1326.910278 1154.154785 C 1305.597412 1153.431396 1285.920898 1147.635132 1268.228027 1134.759644 M 1361.035156 1004.389648 C 1340.303223 993.295593 1319.412842 992.775269 1299.343628 1005.288208 C 1274.589111 1020.722229 1265.910522 1054.335205 1278.558594 1082.307861 C 1290.105591 1107.845215 1319.284912 1120.750977 1347.842041 1112.208252 C 1371.086914 1105.254639 1384.328735 1088.886841 1387.351685 1065.063721 C 1390.49707 1040.275879 1383.307129 1019.300537 1361.035156 1004.389648 z" stroke-linecap="round" />
</g>
		<g transform="matrix(1 0 0 1 83.7 40.82)"  >
<path style="stroke: none; stroke-width: 1; stroke-dasharray: none; stroke-linecap: butt; stroke-dashoffset: 0; stroke-linejoin: miter; stroke-miterlimit: 4; fill: rgb(35,32,31); fill-rule: nonzero; opacity: 1;" vector-effect="non-scaling-stroke"  transform=" translate(-1104.46, -1055.44)" d="M 1045.085083 1136.897949 C 989.338867 1100.047119 989.841187 1005.465881 1051.609741 970.445129 C 1090.318481 948.498535 1143.124878 953.507019 1174.89624 983.341919 C 1197.766235 1004.817932 1206.337158 1032.095825 1204.416992 1062.943726 C 1200.842896 1120.362305 1154.848267 1154.443359 1102.977051 1153.983154 C 1082.242554 1153.799194 1062.814087 1148.755615 1045.085083 1136.897949 M 1160.90686 1044.823853 C 1160.699463 1043.848511 1160.480713 1042.875488 1160.286255 1041.897461 C 1151.704346 998.735901 1106.774536 987.456055 1078.163208 1002.412354 C 1055.382812 1014.320679 1044.1875 1037.551514 1047.867065 1066.017944 C 1050.861572 1089.185059 1068.179321 1108.369141 1090.274658 1112.995728 C 1116.890869 1118.568848 1140.807983 1108.918823 1153.44751 1087.633179 C 1161.205688 1074.567871 1162.800171 1060.45752 1160.90686 1044.823853 z" stroke-linecap="round" />
</g>
		<g transform="matrix(1 0 0 1 -328.51 40.81)"  >
<path style="stroke: none; stroke-width: 1; stroke-dasharray: none; stroke-linecap: butt; stroke-dashoffset: 0; stroke-linejoin: miter; stroke-miterlimit: 4; fill: rgb(35,32,31); fill-rule: nonzero; opacity: 1;" vector-effect="non-scaling-stroke"  transform=" translate(-692.25, -1055.43)" d="M 676.560303 995.169739 C 675.205872 995.563843 674.240295 995.830505 673.303589 996.175659 C 666.570251 998.65686 661.620361 1002.843323 661.200012 1010.474426 C 660.775024 1018.19043 665.206543 1023.32074 671.970154 1025.61377 C 683.444031 1029.503784 695.237915 1032.438599 706.837219 1035.972168 C 719.709839 1039.893677 732.86969 1043.175537 745.267212 1048.282715 C 764.134399 1056.055054 773.69397 1071.29248 774.857178 1091.476807 C 776.076538 1112.635376 768.269592 1129.734375 749.787537 1140.813354 C 731.293457 1151.899536 710.689209 1154.501221 689.586304 1153.57959 C 661.06073 1152.333984 635.243896 1142.99353 612.001221 1126.467163 C 611.212952 1125.906616 610.537231 1125.187866 609.521179 1124.28772 C 616.377319 1113.553467 623.151184 1102.947998 630.092651 1092.080078 C 641.577515 1100.993408 653.664673 1107.520264 666.993469 1111.552246 C 683.35614 1116.501953 699.953369 1118.109741 716.748413 1113.955933 C 719.762878 1113.210449 722.770081 1111.914062 725.411804 1110.276978 C 734.881592 1104.408203 735.84729 1090.691406 726.518677 1084.692505 C 720.240295 1080.655273 712.745117 1078.210693 705.49884 1076.039673 C 689.895386 1071.36499 673.993774 1067.677612 658.421997 1062.907593 C 647.537415 1059.573364 637.305237 1054.491333 629.801758 1045.471924 C 610.615784 1022.409607 617.615723 984.572571 643.756348 968.779358 C 656.220398 961.249023 669.940063 958.239258 684.187683 957.398743 C 713.574219 955.664978 741.109497 961.665894 766.026001 977.920593 C 767.131836 978.641968 768.171753 979.464294 769.683167 980.558838 C 763.373291 991.279114 757.102417 1001.933289 750.841736 1012.570068 C 727.836304 998.744019 703.919128 990.45636 676.560303 995.169739 z" stroke-linecap="round" />
</g>
		<g transform="matrix(1 0 0 1 -130.03 40.63)"  >
<path style="stroke: none; stroke-width: 1; stroke-dasharray: none; stroke-linecap: butt; stroke-dashoffset: 0; stroke-linejoin: miter; stroke-miterlimit: 4; fill: rgb(35,32,31); fill-rule: nonzero; opacity: 1;" vector-effect="non-scaling-stroke"  transform=" translate(-890.73, -1055.25)" d="M 964.125061 1010.033691 C 958.079346 1013.572693 952.362061 1016.949219 946.649231 1020.323059 C 924.17627 985.645508 876.693481 991.58197 856.578369 1013.653564 C 834.598206 1037.771484 836.310059 1079.765381 860.459351 1101.147217 C 880.955872 1119.2948 925.901428 1123.100098 948.504456 1088.609375 C 960.077454 1095.232178 971.676392 1101.869873 983.238831 1108.486816 C 967.748779 1141.965698 920.625 1160.732788 875.135437 1151.899902 C 830.440613 1143.221313 800.290039 1106.920166 798.311035 1059.40332 C 796.407776 1013.703491 824.000244 974.231079 866.022583 961.566772 C 909.467712 948.473633 960.739746 960.142029 982.125671 999.829651 C 976.24469 1003.171326 970.34906 1006.521362 964.125061 1010.033691 z" stroke-linecap="round" />
</g>
		<g transform="matrix(1 0 0 1 310.47 -79.83)"  >
<path style="stroke: none; stroke-width: 1; stroke-dasharray: none; stroke-linecap: butt; stroke-dashoffset: 0; stroke-linejoin: miter; stroke-miterlimit: 4; fill: rgb(33,31,30); fill-rule: nonzero; opacity: 1;" vector-effect="non-scaling-stroke"  transform=" translate(-1331.23, -934.79)" d="M 1225.728516 964.651672 C 1231.947998 951.416687 1242.19104 942.261047 1252.599731 934.539551 C 1250.126709 924.482178 1247.472168 915.073364 1245.625244 905.508545 C 1244.861084 901.550354 1245.280762 897.14624 1246.102661 893.137817 C 1249.189331 878.084595 1263.410522 870.920715 1277.603394 876.958984 C 1284.485352 879.88678 1289.58606 884.889893 1293.062988 891.312866 C 1296.616577 897.877136 1299.671509 904.72467 1302.670288 911.568542 C 1303.693359 913.903625 1304.629883 914.534851 1307.369995 914.490295 C 1323.980713 914.219971 1340.598022 914.35553 1357.713013 914.35553 C 1359.315063 910.333435 1361.002441 905.848389 1362.878052 901.443665 C 1366.174194 893.702881 1370.374268 886.533447 1377.155518 881.286865 C 1385.231934 875.038025 1394.199097 872.766052 1403.815186 877.059753 C 1413.379883 881.330627 1417.161377 890.022095 1416.521973 899.557129 C 1415.897583 908.869995 1412.939697 918.034668 1410.880737 927.236267 C 1410.453979 929.143494 1409.47583 930.927368 1408.62207 933.097778 C 1429.349609 948.150269 1441.915649 967.849609 1443.566406 994.763367 C 1419.412842 949.507263 1381.115356 928.820068 1332.04187 928.508301 C 1283.084595 928.197266 1245.001465 949.37146 1218.896362 992.420288 C 1219.648804 982.399841 1221.649658 973.474792 1225.728516 964.651672 M 1265.405762 920.985779 C 1266.114258 922.604309 1266.822632 924.222839 1267.494995 925.759216 C 1274.416626 923.150879 1281.050537 920.65094 1288.081665 918.001343 C 1285.415894 908.88562 1282.177368 899.970215 1274.882935 893.518372 C 1272.651489 891.544739 1268.258789 890.210693 1265.627686 891.038147 C 1263.333618 891.759644 1261.769043 895.786743 1260.574951 898.642944 C 1259.878418 900.308899 1260.192993 902.631409 1260.661865 904.506226 C 1261.985718 909.799744 1263.623901 915.014526 1265.405762 920.985779 M 1378.871094 904.431946 C 1377.101685 908.811157 1375.332275 913.19043 1373.577393 917.533508 C 1381.106689 920.242249 1387.875122 922.677246 1394.88916 925.200623 C 1398.195679 916.572083 1402.249878 908.211792 1401.029663 898.807739 C 1400.673584 896.064575 1398.853271 892.184082 1396.715942 891.346436 C 1394.226685 890.370972 1389.863281 891.207275 1387.729736 892.970947 C 1384.27063 895.830444 1381.965576 900.085815 1378.871094 904.431946 z" stroke-linecap="round" />
</g>
		<g transform="matrix(1 0 0 1 536.28 40.94)"  >
<path style="stroke: none; stroke-width: 1; stroke-dasharray: none; stroke-linecap: butt; stroke-dashoffset: 0; stroke-linejoin: miter; stroke-miterlimit: 4; fill: rgb(254,254,254); fill-rule: nonzero; opacity: 1; visibility: hidden;" vector-effect="non-scaling-stroke"  transform=" translate(-1557.04, -1055.57)" d="M 1501.918701 1072.935791 C 1490.774658 1032.849487 1518.356445 995.683899 1558.537964 996.130249 C 1591.736938 996.499023 1616.743286 1024.269531 1614.505127 1058.283813 C 1612.780029 1084.498779 1598.415161 1104.749023 1576.494873 1111.867065 C 1544.143066 1122.372559 1512.099854 1105.799438 1501.918701 1072.935791 z" stroke-linecap="round" />
</g>
		<g transform="matrix(1 0 0 1 83.65 40.72)"  >
<path style="stroke: none; stroke-width: 1; stroke-dasharray: none; stroke-linecap: butt; stroke-dashoffset: 0; stroke-linejoin: miter; stroke-miterlimit: 4; fill: rgb(254,254,254); fill-rule: nonzero; opacity: 1; visibility: hidden;" vector-effect="non-scaling-stroke"  transform=" translate(-1104.41, -1055.35)" d="M 1160.938721 1045.263428 C 1162.800171 1060.45752 1161.205688 1074.567871 1153.44751 1087.633179 C 1140.807983 1108.918823 1116.890869 1118.568848 1090.274658 1112.995728 C 1068.179321 1108.369141 1050.861572 1089.185059 1047.867065 1066.017944 C 1044.1875 1037.551514 1055.382812 1014.320679 1078.163208 1002.412354 C 1106.774536 987.456055 1151.704346 998.735901 1160.286255 1041.897461 C 1160.480713 1042.875488 1160.699463 1043.848511 1160.938721 1045.263428 z" stroke-linecap="round" />
</g>
		<g transform="matrix(1 0 0 1 366.66 -106.56)"  >
<path style="stroke: none; stroke-width: 1; stroke-dasharray: none; stroke-linecap: butt; stroke-dashoffset: 0; stroke-linejoin: miter; stroke-miterlimit: 4; fill: rgb(254,254,254); fill-rule: nonzero; opacity: 1; visibility: hidden;" vector-effect="non-scaling-stroke"  transform=" translate(-1387.41, -908.07)" d="M 1379.022217 904.091919 C 1381.965576 900.085815 1384.27063 895.830444 1387.729736 892.970947 C 1389.863281 891.207275 1394.226685 890.370972 1396.715942 891.346436 C 1398.853271 892.184082 1400.673584 896.064575 1401.029663 898.807739 C 1402.249878 908.211792 1398.195679 916.572083 1394.88916 925.200623 C 1387.875122 922.677246 1381.106689 920.242249 1373.577393 917.533508 C 1375.332275 913.19043 1377.101685 908.811157 1379.022217 904.091919 z" stroke-linecap="round" />
</g>
</g>
</g>
</svg>